<?xml version="1.0" encoding="UTF-8"?>
<svg version="1.1" viewBox="0 0 1e3 1e3" xmlns="http://www.w3.org/2000/svg">
 <path id="path" transform="" d="m500 0c-276 0-500 224-500 500s224 500 500 500 500-224 500-500-224-500-500-500m-56 368c22 21 40 44 56 68 16-24 34-47 56-68 39-35 91-61 156-61 111 0 202 88 202 196s-91 195-202 195c-62 3-112-21-149-55-25-23-45-50-63-78-18 28-38 55-63 78-37 34-87 58-149 55-111 0-202-87-202-195s91-196 202-196c65 0 117 26 156 61m-289 135c0 69 58 126 133 126h1c46 2 74-11 101-36 25-23 47-56 69-93-19-31-39-60-62-81-29-27-60-43-109-43-75 0-133 57-133 127m448-84c-23 21-43 50-62 81 22 37 44 70 69 93 27 25 55 38 101 36h1c75 0 133-57 133-126 0-70-58-127-133-127-49 0-80 16-109 43m119 21v38h37v38h-37v38h-28-11v-38h-38v-38h38v-38h39m-360 42v30h-117-21v-30h138" fill="#fff"/>
</svg>
