<?xml version="1.0" encoding="UTF-8"?>
<!-- Created with Inkscape (http://www.inkscape.org/) -->
<svg viewBox="0 0 1077.3 656" xmlns="http://www.w3.org/2000/svg" xmlns:xlink="http://www.w3.org/1999/xlink">
 <g transform="translate(-87,-21)">
  <path d="m484.33 676.31c-4.2714-0.84315-3.7584-5.7661 0.83802-8.0421 1.2801-0.63386 5.7573-2.6976 9.9493-4.5862 8.5318-3.8436 15.822-8.5512 30.085-19.428 19.732-15.047 36.637-36.317 45.757-57.572 12.712-29.627 15.804-54.626 10.477-84.722-4.5042-25.448-12.546-44.597-26.687-63.549-10.398-13.936-10.923-14.451-88.754-87.271-36.025-33.706-67.451-63.687-69.836-66.625-6.8331-8.4186-8.002-17.904-3.5706-28.973 2.9286-7.3157 7.903-12.492 15.284-15.905l4.6224-2.1373 177.75-0.26875c97.762-0.14782 177.72 0.0772 177.69 0.5-0.0335 0.42281-43.597 99.319-96.807 219.77l-96.746 219-43.943 0.11897c-24.169 0.0654-44.918-0.0734-46.109-0.30847zm219.96-2.15c0.66095-1.5617 44.402-100.55 97.202-219.98l96-217.14 86.333-0.0182c49.396-0.0104 86.191 0.35879 86 0.86302-0.1833 0.4847-44.17 99.485-97.749 220l-97.415 219.12h-171.57zm-617.3-116.89c0-0.41656 53.164-121.25 118.14-268.51l118.14-267.76h420.83c400.37 0 420.79 0.08505 420.16 1.75-0.3663 0.9625-9.7763 22.45-20.911 47.75l-20.245 46-361.31 0.5c-341.13 0.47208-361.78 0.59917-369.81 2.2759-15.31 3.1986-33.962 9.8757-44.5 15.93-22.094 12.694-31.17 19.368-40.23 29.583-13.44 15.155-27.552 38.723-32.757 54.711-4.5401 13.944-8.4942 35.849-8.5038 47.111-0.0125 14.501 5.3525 39.274 12.364 57.089 2.6502 6.7342 13.759 25.782 19.711 33.8 6.9027 9.297 23.223 25.179 88.416 86.045 35.75 33.377 66.446 62.368 68.213 64.426 1.8916 2.2023 4.2522 6.9244 5.74 11.482 2.2261 6.8194 2.3948 8.2957 1.4171 12.394-1.5193 6.369-7.6436 16.469-11.332 18.687-1.671 1.0052-5.0632 2.9837-7.5382 4.3967l-4.5 2.5691-175.75 0.26366c-96.662 0.14501-175.75-0.07717-175.75-0.49372z" fill="#fff"/>
 </g>
</svg>
