<?xml version="1.0" encoding="UTF-8" standalone="no"?>
<svg
   viewBox="0 0 365.71429 365.71429"
   width="512"
   height="512"
   version="1.1"
   id="svg144"
   xmlns="http://www.w3.org/2000/svg"
   xmlns:svg="http://www.w3.org/2000/svg">
  <desc
     id="desc1">logo_EZ.dxf - scale = 1.000000, origin = (0.000000, 0.000000), method = file</desc>
  <defs
     id="defs4" />
  <g
     id="g144">
    <g
       id="g11"
       style="fill:#000000;fill-opacity:1;stroke:none"
       transform="translate(-6.1169419,-750.68312)">
      <path
         d="m 148.26187,1053.1074 c -0.003,-3.2331 -2.62515,-5.8523 -5.85827,-5.8523 -3.23311,0 -5.85499,2.6192 -5.85826,5.8523 0.003,3.2331 2.62515,5.8523 5.85826,5.8523 3.23312,0 5.855,-2.6192 5.85827,-5.8523 z"
         style="fill:#000000;fill-opacity:1;stroke:none"
         id="path5" />
      <path
         d="m 109.07206,1073.1618 c 0,-3.1311 -2.53823,-5.6693 -5.66929,-5.6693 -3.13107,0 -5.669297,2.5382 -5.669297,5.6693 0,3.1311 2.538227,5.6693 5.669297,5.6693 3.13106,0 5.66929,-2.5382 5.66929,-5.6693 z"
         style="fill:#000000;fill-opacity:1;stroke:none"
         id="path6" />
      <path
         d="m 139.82768,782.10941 c -0.002,-3.12975 -2.53954,-5.66592 -5.66929,-5.66592 -3.12975,0 -5.66743,2.53617 -5.66929,5.66592 0.002,3.12975 2.53954,5.66592 5.66929,5.66592 3.12975,0 5.66743,-2.53617 5.66929,-5.66592 z"
         style="fill:#000000;fill-opacity:1;stroke:none"
         id="path7" />
      <path
         d="m 277.87507,799.32349 c -0.002,-3.12945 -2.53984,-5.66516 -5.66929,-5.66516 -3.12945,0 -5.66701,2.53571 -5.66929,5.66516 0.002,3.12945 2.53984,5.66516 5.66929,5.66516 3.12945,0 5.66701,-2.53571 5.66929,-5.66516 z"
         style="fill:#000000;fill-opacity:1;stroke:none"
         id="path8" />
      <path
         d="m 205.85358,898.78027 c -13.33226,16.00309 -0.74622,40.15007 20.01007,38.38209 6.30208,-0.53679 5.90482,-9.88139 -0.42008,-9.88138 -10.32648,-10e-6 -15.96712,-12.04288 -9.35781,-19.97623 6.60931,-7.93334 19.47283,-4.5603 21.33773,5.59639 1.14227,6.22084 10.40485,4.92402 9.79477,-1.37133 -2.00952,-20.7343 -28.03243,-28.75262 -41.36468,-12.74954 z"
         style="fill:#000000;fill-opacity:1;stroke:none"
         id="path9" />
      <path
         d="m 275.67109,1015.7406 c -2.583,2.583 -2.58299,6.7709 -3e-5,9.3517 l 17.18476,17.1872 c 0.75434,7.11 9.41348,10.171 14.46928,5.1152 5.0558,-5.0558 1.99489,-13.7149 -5.11586,-14.4671 l -17.18426,-17.1873 c -2.58303,-2.5827 -6.7709,-2.5827 -9.35389,3e-4 z"
         style="fill:#000000;fill-opacity:1;stroke:none"
         id="path13" />
      <path
         d="m 171.00611,1096.279 c -0.002,-3.1295 -2.53984,-5.6652 -5.66929,-5.6652 -3.12945,0 -5.66701,2.5357 -5.66929,5.6652 0.002,3.1295 2.53984,5.6652 5.66929,5.6652 3.12945,0 5.66701,-2.5357 5.66929,-5.6652 z"
         style="fill:#000000;fill-opacity:1;stroke:none"
         id="path17" />
      <path
         d="m 140.04733,1091.1931 c 0,-3.1311 -2.53823,-5.6693 -5.6693,-5.6693 -3.13106,0 -5.66929,2.5382 -5.66929,5.6693 0,3.1311 2.53823,5.6693 5.66929,5.6693 3.13107,0 5.6693,-2.5382 5.6693,-5.6693 z"
         style="fill:#000000;fill-opacity:1;stroke:none"
         id="path18" />
      <path
         d="m 54.185076,846.96962 c 0,-3.13107 -2.538228,-5.66929 -5.669291,-5.66929 -3.131063,0 -5.669291,2.53822 -5.669291,5.66929 0,3.13107 2.538228,5.66929 5.669291,5.66929 3.131063,0 5.669291,-2.53822 5.669291,-5.66929 z"
         style="fill:#000000;fill-opacity:1;stroke:none"
         id="path19" />
      <path
         d="m 113.75697,1012.7838 c 0,-3.2354 -2.62284,-5.8583 -5.85827,-5.8583 -3.23543,0 -5.85827,2.6229 -5.85827,5.8583 0,3.2354 2.62284,5.8583 5.85827,5.8583 3.23543,0 5.85827,-2.6229 5.85827,-5.8583 z"
         style="fill:#000000;fill-opacity:1;stroke:none"
         id="path20" />
      <path
         d="m 141.18049,916.90909 c -0.003,-3.23312 -2.62515,-5.85234 -5.85827,-5.85234 -3.23311,0 -5.85499,2.61922 -5.85826,5.85234 0.003,3.23312 2.62515,5.85234 5.85826,5.85234 3.23312,0 5.855,-2.61922 5.85827,-5.85234 z"
         style="fill:#000000;fill-opacity:1;stroke:none"
         id="path21" />
      <path
         style="fill:#000000;fill-opacity:1;stroke:none"
         d="m 25.710501,934.15782 c -8.79436,1.75846 -11.126616,13.23776 -3.717604,18.28967 7.409012,5.05191 17.243351,-1.31202 15.668322,-10.1413 L 60.0709,916.624 h 11.9373 l 13.907922,-15.93901 c -8.183,8.07438 -21.959088,5.12531 -26.11944,-5.59122 z"
         id="path25" />
      <path
         id="path44"
         style="fill:#000000;fill-opacity:1;stroke:none;stroke-opacity:1"
         d="m 101.46875,792.60351 c -3.966018,0 -7.18162,3.21537 -7.181641,7.18164 v 12.52149 c -3.945906,1.8583 -7.433732,4.56374 -10.214844,7.92383 H 69.023437 c -6.179447,-5.43772 -15.884765,-1.05084 -15.884765,7.17968 0,8.23053 9.705318,12.61913 15.884765,7.18165 h 8.587891 c -0.531065,3.41745 -0.460013,6.90153 0.208984,10.29492 l -44.544921,36.28125 c -8.237692,0.41673 -12.141322,10.3479 -6.394532,16.26367 5.746791,5.91577 15.786374,2.30007 16.441407,-5.92188 l 40.874999,-33.29492 c 4.680748,5.58019 11.249654,9.244 18.457035,10.29297 -5.220383,3.5178 -10.258692,7.29785 -15.09766,11.32422 4.711203,6.39314 4.012271,15.27567 -1.640625,20.85352 39.108155,-38.58899 94.258105,-56.24388 148.505855,-47.54102 11.78498,1.89064 23.207,5.58439 33.86719,10.95312 l -15.75,-21.88476 c -39.51044,-9.90566 -81.17422,-6.63138 -118.65234,9.32422 2.36096,-5.13689 3.20564,-10.8409 2.43359,-16.44141 31.31265,-11.76296 65.06224,-15.53521 98.19922,-10.97656 L 215.2207,808.03125 c -28.7174,-1.08314 -57.36264,3.58654 -84.25,13.73242 -5.22413,-7.22502 -13.4196,-11.71883 -22.32031,-12.23633 v -9.74219 c -1.3e-4,-3.96627 -3.21563,-7.18164 -7.18164,-7.18164 z m 5.45898,31.24219 c 8.45171,0 15.3056,6.85102 15.3086,15.30274 -0.003,8.45172 -6.85689,15.30078 -15.3086,15.30078 -8.451702,0 -15.303536,-6.84906 -15.306636,-15.30078 0.0031,-8.45172 6.854934,-15.30274 15.306636,-15.30274 z" />
      <path
         d="m 42.235903,970.35041 c 0,-3.13107 -2.538228,-5.66929 -5.669292,-5.66929 -3.131063,0 -5.669291,2.53822 -5.669291,5.66929 0,3.13107 2.538228,5.66929 5.669291,5.66929 3.131064,0 5.669292,-2.53822 5.669292,-5.66929 z"
         style="fill:#000000;fill-opacity:1;stroke:none"
         id="path53" />
      <path
         d="m 294.88295,818.85378 c -0.002,-3.12945 -2.53984,-5.66516 -5.66929,-5.66516 -3.12945,0 -5.66701,2.53571 -5.66929,5.66516 0.002,3.12945 2.53984,5.66516 5.66929,5.66516 3.12945,0 5.66701,-2.53571 5.66929,-5.66516 z"
         style="fill:#000000;fill-opacity:1;stroke:none"
         id="path54" />
      <path
         d="m 290.38781,945.12623 c 0,-6.61801 -5.36495,-11.98295 -11.98296,-11.98295 -6.618,0 -11.98295,5.36494 -11.98295,11.98295 0,6.61801 5.36495,11.98295 11.98295,11.98295 6.61801,0 11.98296,-5.36494 11.98296,-11.98295 z"
         style="fill:#000000;fill-opacity:1;stroke:none"
         id="path55" />
      <path
         d="m 318.42266,1019.817 c -0.002,-3.1295 -2.53984,-5.6652 -5.66929,-5.6652 -3.12945,0 -5.66701,2.5357 -5.66929,5.6652 0.002,3.1295 2.53984,5.6652 5.66929,5.6652 3.12945,0 5.66701,-2.5357 5.66929,-5.6652 z"
         style="fill:#000000;fill-opacity:1;stroke:none"
         id="path56" />
      <path
         style="fill:#000000;fill-opacity:1;stroke:none"
         d="m 309.25977,833.62263 c -2.04243,-3.46254 -6.50504,-4.61384 -9.96766,-2.57154 -3.46261,2.04229 -4.6141,6.50485 -2.57194,9.96755 8.3327,14.12772 13.55501,29.8708 15.31814,46.17778 0.43214,3.99686 4.02256,6.88662 8.01941,6.45448 3.99685,-0.43215 6.88662,-4.02255 6.45448,-8.01941 -1.98576,-18.36614 -7.86752,-36.09717 -17.25243,-52.00886 z"
         id="path60" />
      <path
         style="fill:#000000;fill-opacity:1;stroke:none"
         d="m 192.5,801.341 -16.432,-14.362 h -22.744 l -12.126,12.125 h -14.079 l -5.075,-5.075 h -9.972 l 13.773,13.774 h 24.784 l 6.462,-6.462 z"
         id="path68" />
      <path
         d="m 39.7298,990.49963 c 0,-3.13107 -2.538228,-5.66929 -5.669291,-5.66929 -3.131063,0 -5.669291,2.53822 -5.669291,5.66929 0,3.13107 2.538228,5.66929 5.669291,5.66929 3.131063,0 5.669291,-2.53822 5.669291,-5.66929 z"
         style="fill:#000000;fill-opacity:1;stroke:none"
         id="path71" />
      <path
         d="m 80.362128,889.31067 c 0,-3.13107 -2.538228,-5.66929 -5.669292,-5.66929 -3.131063,0 -5.669291,2.53822 -5.669291,5.66929 0,3.13107 2.538228,5.66929 5.669291,5.66929 3.131064,0 5.669292,-2.53822 5.669292,-5.66929 z"
         style="fill:#000000;fill-opacity:1;stroke:none"
         id="path72" />
      <path
         id="path130"
         style="fill:#000000;fill-opacity:1;stroke:none"
         d="m 193.50195,765.14062 c -4.34504,0.0884 -8.64049,2.61922 -10.32422,7.53907 -3.36746,9.83969 7.37659,18.52719 16.29297,13.16992 46.50452,17.57971 79.75956,59.07049 86.79102,108.28711 -14.91374,-14.20195 -33.7812,-23.55035 -54.11524,-26.8125 -92.80905,-14.88918 -178.045439,53.96876 -182.998043,147.83398 -8.384104,6.0916 -4.614531,19.3265 5.71875,20.0898 10.333281,0.7632 16.005539,-11.7738 8.607422,-19.0312 1.816112,-35.85037 16.975831,-69.72469 42.498051,-94.9668 0.7704,5.20987 2.91294,10.11896 6.20898,14.22656 -18.943682,20.42806 -30.79111,46.42419 -33.78125,74.12304 -0.114172,1.0576 -0.171874,2.1197 -0.171875,3.1816 v 36.5489 c -4.26431,5.8672 -0.0718,14.0937 7.181641,14.0937 7.253446,0 11.44596,-8.2265 7.181641,-14.0937 v -11.1309 c 6.747167,4.0633 14.833593,5.2782 22.476563,3.375 -5.57894,13.2227 -0.89527,28.5421 11.125,36.3828 12.02027,7.8407 27.93063,5.9546 37.7832,-4.4785 l 17.58985,17.5918 h 49.41601 c 5.66185,3.5902 13.0586,-0.4789 13.0586,-7.1836 0,-6.7047 -7.39675,-10.7716 -13.0586,-7.1777 h -43.4668 l -16.34375,-16.3496 c 2.5692,-10.1879 -0.44113,-20.9763 -7.91601,-28.3613 v -34.16016 l 25.25391,-25.2539 h 29.75 c 3.96613,2.5e-4 7.18164,-3.21367 7.18164,-7.17969 0,-3.96601 -3.21551,-7.1815 -7.18164,-7.18164 h -35.69922 l -33.66797,33.66601 v 32.26758 c -4.50339,-1.0112 -9.17987,-0.957 -13.65821,0.1582 4.26997,-10.1203 2.60001,-21.7706 -4.34179,-30.2832 l 49.08203,-49.08203 h 25.24414 l -14.36133,-14.36133 h -16.83203 l -54.78125,54.7793 c -6.49869,-2.68932 -13.7425,-2.98327 -20.4375,-0.82813 5.40525,-15.0271 13.87961,-28.76378 24.88281,-40.33789 19.38742,8.26285 40.96809,-5.75612 41.29883,-26.82812 h 22.52734 l 2.62891,-14.36328 h -28.60937 c -2.56874,-4.84502 -6.42918,-8.88265 -11.1543,-11.66602 25.03024,-10.74197 52.59622,-14.15439 79.49023,-9.83984 28.33051,4.54501 52.6325,22.68963 65.04102,48.56054 9.10064,18.97419 23.62821,34.82026 41.74219,45.53125 -6.49614,6.23945 -15.05444,9.87875 -24.05469,10.23047 H 199.4707 c -12.14998,0.69141 -21.64854,10.74644 -21.64843,22.91408 v 33.4883 l 17.01171,17.0097 h 42.23438 l 16.11914,16.1211 c 1.46427,6.5445 9.57155,8.8992 14.3125,4.1582 4.74094,-4.7409 2.38692,-12.8478 -4.15625,-14.3105 L 243.01758,1044.879 H 200.7832 l -8.56054,-8.5606 v -6.6699 h 52.20703 l 27.98047,27.9805 c 1.46404,6.5444 9.57155,8.8992 14.3125,4.1582 4.74094,-4.7409 2.38669,-12.848 -4.15625,-14.3106 l -32.1875,-32.1894 h -58.15625 v -6.5469 c 6e-5,-4.7217 3.82906,-8.5503 8.55273,-8.5508 h 110.38672 c 12.32609,5e-4 24.23912,-4.45192 33.54297,-12.5371 7.32805,2.47475 15.0282,-2.60397 15.63867,-10.31446 0.61047,-7.71048 -6.19609,-13.93921 -13.82227,-12.64844 -12.68176,-6.96097 -23.54149,-16.81521 -31.69726,-28.76367 -7.57601,-11.09908 -12.23747,-23.92553 -13.55664,-37.29883 -5.64223,-57.19901 -43.31998,-106.21366 -97.14453,-126.375 -1.88217,-4.8485 -6.27606,-7.2017 -10.6211,-7.11328 z m -58.17968,136.46875 c 8.45082,0 15.30264,6.84801 15.30664,15.29883 -0.004,8.45082 -6.85582,15.30078 -15.30664,15.30078 -8.45081,0 -15.30265,-6.84996 -15.30665,-15.30078 0.004,-8.45082 6.85584,-15.29883 15.30665,-15.29883 z m -27.42383,95.86719 c 8.45387,0 15.30664,6.85274 15.30664,15.30664 0,8.4539 -6.85277,15.3086 -15.30664,15.3086 -8.453877,0 -15.306643,-6.8547 -15.306643,-15.3086 0,-8.4539 6.852766,-15.30664 15.306643,-15.30664 z m 34.50586,40.33204 c 8.45082,0 15.30264,6.848 15.30664,15.2988 -0.004,8.4508 -6.85582,15.2988 -15.30664,15.2988 -8.45081,0 -15.3046,-6.848 -15.3086,-15.2988 0.004,-8.4508 6.85779,-15.2988 15.3086,-15.2988 z" />
      <path
         d="m 112.7866,839.14771 c -0.003,-3.23312 -2.62515,-5.85234 -5.85826,-5.85234 -3.23312,0 -5.855,2.61922 -5.85827,5.85234 0.003,3.23312 2.62515,5.85234 5.85827,5.85234 3.23311,0 5.85499,-2.61922 5.85826,-5.85234 z"
         style="fill:#000000;fill-opacity:1;stroke:none"
         id="path52" />
    </g>
  </g>
</svg>
